# xmcd CD database file
#
# Track frame offsets:
#	150
#	15775
#	40690
#	46217
#	77927
#	104927
#	124850
#	144980
#	173692
#	199442
#	220530
#
# Disc length: 3928 seconds
#
# Revision: 0
# Processed by: cddbd v1.5.2PL0 Copyright (c) Steve Scherf et al.
# Submitted via: CDex 1.94
#
DISCID=910f560b
DTITLE=ICE-9 - Voyager
DYEAR=1993
DGENRE=New Age
TTITLE0=Khaduk Kerelem
TTITLE1=Polardorsch
TTITLE2=Phatimokkha
TTITLE3=Tomsk-7
TTITLE4=Kosmoflot
TTITLE5=Kaumodakii
TTITLE6=Nadal Serendis
TTITLE7=Nabel Ibul
TTITLE8=Aka Nonga
TTITLE9=Hirohashi
TTITLE10=Halajah
EXTD=YEAR: 1993
EXTT0=
EXTT1=
EXTT2=
EXTT3=
EXTT4=
EXTT5=
EXTT6=
EXTT7=
EXTT8=
EXTT9=
EXTT10=
PLAYORDER=
